<mxfile host="65bd71144e">
    <diagram id="KUPZU9YDLDXV0q95i1sC" name="ページ1">
        <mxGraphModel dx="1153" dy="779" grid="1" gridSize="10" guides="1" tooltips="1" connect="1" arrows="1" fold="1" page="1" pageScale="1" pageWidth="827" pageHeight="1169" background="#FFFFFF" math="0" shadow="0">
            <root>
                <mxCell id="0"/>
                <mxCell id="1" parent="0"/>
                <mxCell id="2" value="contacts&lt;br&gt;&lt;div&gt;-----------&lt;/div&gt;&lt;div&gt;id(PK)&lt;/div&gt;&lt;div&gt;last_name&lt;/div&gt;&lt;div&gt;first_name&lt;/div&gt;&lt;div&gt;gender&lt;/div&gt;&lt;div&gt;email&lt;/div&gt;&lt;div&gt;tel&lt;/div&gt;&lt;div&gt;address&lt;/div&gt;&lt;div&gt;building&lt;/div&gt;&lt;div&gt;category_id(FK)&lt;/div&gt;&lt;div&gt;detail&lt;/div&gt;&lt;div&gt;created_at&lt;/div&gt;&lt;div&gt;updated_at&lt;/div&gt;" style="rounded=1;whiteSpace=wrap;html=1;" parent="1" vertex="1">
                    <mxGeometry x="90" y="330" width="190" height="270" as="geometry"/>
                </mxCell>
                <mxCell id="5" value="categories&lt;div&gt;&lt;div&gt;-----------&lt;/div&gt;&lt;div&gt;id(PK)&lt;/div&gt;&lt;div&gt;content&lt;/div&gt;&lt;div&gt;created_at&lt;/div&gt;&lt;div&gt;updated_at&lt;/div&gt;&lt;/div&gt;" style="rounded=1;whiteSpace=wrap;html=1;" parent="1" vertex="1">
                    <mxGeometry x="480" y="330" width="170" height="270" as="geometry"/>
                </mxCell>
                <mxCell id="9" value="" style="endArrow=none;html=1;entryX=-0.013;entryY=0.483;entryDx=0;entryDy=0;strokeColor=default;startArrow=ERmany;startFill=0;entryPerimeter=0;exitX=1.012;exitY=0.664;exitDx=0;exitDy=0;exitPerimeter=0;" parent="1" source="2" target="5" edge="1">
                    <mxGeometry width="50" height="50" relative="1" as="geometry">
                        <mxPoint x="300" y="460" as="sourcePoint"/>
                        <mxPoint x="440" y="540" as="targetPoint"/>
                    </mxGeometry>
                </mxCell>
                <mxCell id="10" value="category_id&lt;div&gt;&lt;br&gt;&lt;/div&gt;" style="edgeLabel;html=1;align=center;verticalAlign=middle;resizable=0;points=[];" parent="9" vertex="1" connectable="0">
                    <mxGeometry x="0.0377" relative="1" as="geometry">
                        <mxPoint as="offset"/>
                    </mxGeometry>
                </mxCell>
                <mxCell id="11" value="&lt;span style=&quot;color: rgb(0, 0, 0);&quot;&gt;users&lt;/span&gt;&lt;div&gt;&lt;div&gt;-----------&lt;/div&gt;&lt;div&gt;id(PK)&lt;/div&gt;&lt;div&gt;name&lt;/div&gt;&lt;div&gt;email&lt;/div&gt;&lt;div&gt;password&lt;/div&gt;&lt;/div&gt;&lt;div&gt;created_at&lt;/div&gt;&lt;div&gt;updated_at&lt;/div&gt;" style="rounded=1;whiteSpace=wrap;html=1;" parent="1" vertex="1">
                    <mxGeometry x="290" y="640" width="190" height="210" as="geometry"/>
                </mxCell>
            </root>
        </mxGraphModel>
    </diagram>
</mxfile>